<svg width="60" height="60" viewBox="0 0 60 60" fill="none" xmlns="http://www.w3.org/2000/svg">
<path d="M30.8813 31.65L49.3875 13.125C49.6947 12.7663 49.8552 12.3049 49.837 11.833C49.8188 11.3611 49.6232 10.9135 49.2892 10.5796C48.9553 10.2456 48.5077 10.05 48.0358 10.0318C47.5639 10.0136 47.1025 10.1741 46.7438 10.4813L29.7563 27.4688L13.2563 10.9688C12.905 10.6195 12.4298 10.4235 11.9344 10.4235C11.4391 10.4235 10.9638 10.6195 10.6125 10.9688C10.4368 11.1431 10.2973 11.3504 10.2021 11.5789C10.1069 11.8074 10.0579 12.0525 10.0579 12.3C10.0579 12.5475 10.1069 12.7926 10.2021 13.0211C10.2973 13.2496 10.4368 13.4569 10.6125 13.6313L28.6313 31.65C28.93 31.9477 29.3346 32.1149 29.7563 32.1149C30.178 32.1149 30.5826 31.9477 30.8813 31.65Z" fill="#2E61A6"/>
<path d="M30.8813 49.6125L49.3876 31.0875C49.6947 30.7288 49.8552 30.2674 49.837 29.7956C49.8188 29.3237 49.6232 28.876 49.2892 28.5421C48.9553 28.2082 48.5077 28.0125 48.0358 27.9943C47.5639 27.9761 47.1025 28.1366 46.7438 28.4438L29.7563 45.4313L13.2563 28.9313C12.905 28.5821 12.4298 28.386 11.9344 28.386C11.4391 28.386 10.9639 28.5821 10.6126 28.9313C10.2633 29.2826 10.0673 29.7578 10.0673 30.2532C10.0673 30.7485 10.2633 31.2237 10.6126 31.575L28.6313 49.6125C28.93 49.9102 29.3346 50.0774 29.7563 50.0774C30.178 50.0774 30.5826 49.9102 30.8813 49.6125Z" fill="#2E61A6"/>
</svg>
