<svg width="70" height="62" viewBox="0 0 70 62" fill="none" xmlns="http://www.w3.org/2000/svg">
<g clip-path="url(#clip0)">
<path d="M0 24.1112V25.2779V54.4445H38.9831L46.6667 46.7609V24.1112H0ZM2.33333 26.4445H44.3333V45.7948L38.0169 52.1112H2.33333V26.4445ZM4.66667 28.7779V29.9445V49.7779H30.3333V28.7779H4.66667ZM7 31.1112H28V33.4445H21V35.7779H28V38.1112H21V40.4445H28V42.7779H21V45.1112H28V47.4445H7V45.1112H14V42.7779H7V40.4445H14V38.1112H7V35.7779H14V33.4445H7V31.1112Z" fill="#1A5BB2"/>
<path d="M0 24.1112V25.2779V54.4445H38.9831L46.6667 46.7609V24.1112H0ZM2.33333 26.4445H44.3333V45.7948L38.0169 52.1112H2.33333V26.4445ZM4.66667 28.7779V29.9445V49.7779H30.3333V28.7779H4.66667ZM7 31.1112H28V33.4445H21V35.7779H28V38.1112H21V40.4445H28V42.7779H21V45.1112H28V47.4445H7V45.1112H14V42.7779H7V40.4445H14V38.1112H7V35.7779H14V33.4445H7V31.1112Z" fill="url(#paint0_linear)"/>
</g>
<g clip-path="url(#clip1)">
<path d="M23.3333 9.33337V10.5V39.6667H62.3164L70 31.9831V9.33337H23.3333ZM25.6666 11.6667H67.6666V31.017L61.3502 37.3334H25.6666V11.6667ZM28 14V15.1667V35H53.6666V14H28ZM30.3333 16.3334H51.3333V18.6667H44.3333V21H51.3333V23.3334H44.3333V25.6667H51.3333V28H44.3333V30.3334H51.3333V32.6667H30.3333V30.3334H37.3333V28H30.3333V25.6667H37.3333V23.3334H30.3333V21H37.3333V18.6667H30.3333V16.3334Z" fill="#1A5BB2"/>
<path d="M23.3333 9.33337V10.5V39.6667H62.3164L70 31.9831V9.33337H23.3333ZM25.6666 11.6667H67.6666V31.017L61.3502 37.3334H25.6666V11.6667ZM28 14V15.1667V35H53.6666V14H28ZM30.3333 16.3334H51.3333V18.6667H44.3333V21H51.3333V23.3334H44.3333V25.6667H51.3333V28H44.3333V30.3334H51.3333V32.6667H30.3333V30.3334H37.3333V28H30.3333V25.6667H37.3333V23.3334H30.3333V21H37.3333V18.6667H30.3333V16.3334Z" fill="url(#paint1_linear)"/>
</g>
<defs>
<linearGradient id="paint0_linear" x1="23.3333" y1="24.1112" x2="23.3333" y2="54.4445" gradientUnits="userSpaceOnUse">
<stop stop-color="#2E61A6"/>
<stop offset="1" stop-color="#3A8DA7"/>
</linearGradient>
<linearGradient id="paint1_linear" x1="46.6666" y1="9.33337" x2="46.6666" y2="39.6667" gradientUnits="userSpaceOnUse">
<stop stop-color="#2E61A6"/>
<stop offset="1" stop-color="#3A8DA7"/>
</linearGradient>
<clipPath id="clip0">
<rect width="46.6667" height="46.6667" fill="white" transform="translate(0 14.7778)"/>
</clipPath>
<clipPath id="clip1">
<rect width="46.6667" height="46.6667" fill="white" transform="translate(23.3333)"/>
</clipPath>
</defs>
</svg>
