<svg width="60" height="60" viewBox="0 0 60 60" fill="none" xmlns="http://www.w3.org/2000/svg">
<path d="M15.0938 49.8867H4.80469C4.47656 49.8867 4.21875 49.6289 4.21875 49.3008V45.4687C4.21875 45.1406 4.47656 44.8828 4.80469 44.8828H15.0938C15.4219 44.8828 15.6797 45.1406 15.6797 45.4687V49.3008C15.6797 49.6172 15.4102 49.8867 15.0938 49.8867ZM5.39062 48.7148H14.5078V46.0547H5.39062V48.7148Z" fill="#2E61A6"/>
<path d="M15.0938 42.9258H4.80469C4.47656 42.9258 4.21875 42.668 4.21875 42.3398V38.5078C4.21875 38.1797 4.47656 37.9219 4.80469 37.9219H15.0938C15.4219 37.9219 15.6797 38.1797 15.6797 38.5078V42.3398C15.6797 42.668 15.4102 42.9258 15.0938 42.9258ZM5.39062 41.7539H14.5078V39.0938H5.39062V41.7539Z" fill="#2E61A6"/>
<path d="M15.0938 35.9766H4.80469C4.47656 35.9766 4.21875 35.7188 4.21875 35.3906V31.5586C4.21875 31.2305 4.47656 30.9727 4.80469 30.9727H15.0938C15.4219 30.9727 15.6797 31.2305 15.6797 31.5586V35.3906C15.6797 35.7188 15.4102 35.9766 15.0938 35.9766ZM5.39062 34.8047H14.5078V32.1445H5.39062V34.8047Z" fill="#2E61A6"/>
<path d="M15.0938 29.0273H4.80469C4.47656 29.0273 4.21875 28.7695 4.21875 28.4414V24.6094C4.21875 24.2813 4.47656 24.0234 4.80469 24.0234H15.0938C15.4219 24.0234 15.6797 24.2813 15.6797 24.6094V28.4414C15.6797 28.7578 15.4102 29.0273 15.0938 29.0273ZM5.39062 27.8555H14.5078V25.1953H5.39062V27.8555Z" fill="#2E61A6"/>
<path d="M28.4531 49.8867H18.1641C17.8359 49.8867 17.5781 49.6289 17.5781 49.3008V45.4687C17.5781 45.1406 17.8359 44.8828 18.1641 44.8828H28.4531C28.7812 44.8828 29.0391 45.1406 29.0391 45.4687V49.3008C29.0391 49.6172 28.7812 49.8867 28.4531 49.8867ZM18.7617 48.7148H27.8789V46.0547H18.7617V48.7148Z" fill="#16ADE1"/>
<path d="M28.4531 42.9258H18.1641C17.8359 42.9258 17.5781 42.668 17.5781 42.3398V38.5078C17.5781 38.1797 17.8359 37.9219 18.1641 37.9219H28.4531C28.7812 37.9219 29.0391 38.1797 29.0391 38.5078V42.3398C29.0391 42.668 28.7812 42.9258 28.4531 42.9258ZM18.7617 41.7539H27.8789V39.0938H18.7617V41.7539Z" fill="#16ADE1"/>
<path d="M28.4531 35.9766H18.1641C17.8359 35.9766 17.5781 35.7188 17.5781 35.3906V31.5586C17.5781 31.2305 17.8359 30.9727 18.1641 30.9727H28.4531C28.7812 30.9727 29.0391 31.2305 29.0391 31.5586V35.3906C29.0391 35.7188 28.7812 35.9766 28.4531 35.9766ZM18.7617 34.8047H27.8789V32.1445H18.7617V34.8047Z" fill="#16ADE1"/>
<path d="M41.8242 49.8867H31.5352C31.207 49.8867 30.9492 49.6289 30.9492 49.3008V45.4687C30.9492 45.1406 31.207 44.8828 31.5352 44.8828H41.8242C42.1523 44.8828 42.4102 45.1406 42.4102 45.4687V49.3008C42.4102 49.6172 42.1523 49.8867 41.8242 49.8867ZM32.1328 48.7148H41.25V46.0547H32.1328V48.7148Z" fill="#2E61A6"/>
<path d="M41.8242 42.9258H31.5352C31.207 42.9258 30.9492 42.668 30.9492 42.3398V38.5078C30.9492 38.1797 31.207 37.9219 31.5352 37.9219H41.8242C42.1523 37.9219 42.4102 38.1797 42.4102 38.5078V42.3398C42.4102 42.668 42.1523 42.9258 41.8242 42.9258ZM32.1328 41.7539H41.25V39.0938H32.1328V41.7539Z" fill="#2E61A6"/>
<path d="M41.8242 35.9766H31.5352C31.207 35.9766 30.9492 35.7188 30.9492 35.3906V31.5586C30.9492 31.2305 31.207 30.9727 31.5352 30.9727H41.8242C42.1523 30.9727 42.4102 31.2305 42.4102 31.5586V35.3906C42.4102 35.7188 42.1523 35.9766 41.8242 35.9766ZM32.1328 34.8047H41.25V32.1445H32.1328V34.8047Z" fill="#2E61A6"/>
<path d="M41.8242 29.0273H31.5352C31.207 29.0273 30.9492 28.7695 30.9492 28.4414V24.6094C30.9492 24.2813 31.207 24.0234 31.5352 24.0234H41.8242C42.1523 24.0234 42.4102 24.2813 42.4102 24.6094V28.4414C42.4102 28.7578 42.1523 29.0273 41.8242 29.0273ZM32.1328 27.8555H41.25V25.1953H32.1328V27.8555Z" fill="#2E61A6"/>
<path d="M55.1953 49.8867H44.9063C44.5781 49.8867 44.3203 49.6289 44.3203 49.3008V45.4687C44.3203 45.1406 44.5781 44.8828 44.9063 44.8828H55.1953C55.5234 44.8828 55.7812 45.1406 55.7812 45.4687V49.3008C55.7812 49.6172 55.5234 49.8867 55.1953 49.8867ZM45.4922 48.7148H54.6094V46.0547H45.4922V48.7148Z" fill="#16ADE1"/>
<path d="M55.1953 42.9258H44.9063C44.5781 42.9258 44.3203 42.668 44.3203 42.3398V38.5078C44.3203 38.1797 44.5781 37.9219 44.9063 37.9219H55.1953C55.5234 37.9219 55.7812 38.1797 55.7812 38.5078V42.3398C55.7812 42.668 55.5234 42.9258 55.1953 42.9258ZM45.4922 41.7539H54.6094V39.0938H45.4922V41.7539Z" fill="#16ADE1"/>
<path d="M55.1953 35.9766H44.9063C44.5781 35.9766 44.3203 35.7188 44.3203 35.3906V31.5586C44.3203 31.2305 44.5781 30.9727 44.9063 30.9727H55.1953C55.5234 30.9727 55.7812 31.2305 55.7812 31.5586V35.3906C55.7812 35.7188 55.5234 35.9766 55.1953 35.9766ZM45.4922 34.8047H54.6094V32.1445H45.4922V34.8047Z" fill="#16ADE1"/>
<path d="M55.1953 29.0273H44.9063C44.5781 29.0273 44.3203 28.7695 44.3203 28.4414V24.6094C44.3203 24.2813 44.5781 24.0234 44.9063 24.0234H55.1953C55.5234 24.0234 55.7812 24.2813 55.7812 24.6094V28.4414C55.7812 28.7578 55.5234 29.0273 55.1953 29.0273ZM45.4922 27.8555H54.6094V25.1953H45.4922V27.8555Z" fill="#16ADE1"/>
<path d="M55.1953 22.0664H44.9063C44.5781 22.0664 44.3203 21.8086 44.3203 21.4805V17.6484C44.3203 17.3203 44.5781 17.0625 44.9063 17.0625H55.1953C55.5234 17.0625 55.7812 17.3203 55.7812 17.6484V21.4805C55.7812 21.8086 55.5234 22.0664 55.1953 22.0664ZM45.4922 20.8945H54.6094V18.2344H45.4922V20.8945Z" fill="#16ADE1"/>
<path d="M55.1953 15.1172H44.9063C44.5781 15.1172 44.3203 14.8594 44.3203 14.5312V10.6992C44.3203 10.3711 44.5781 10.1133 44.9063 10.1133H55.1953C55.5234 10.1133 55.7812 10.3711 55.7812 10.6992V14.5312C55.7812 14.8594 55.5234 15.1172 55.1953 15.1172ZM45.4922 13.9453H54.6094V11.2852H45.4922V13.9453Z" fill="#16ADE1"/>
</svg>
