<svg width="64" height="64" viewBox="0 0 64 64" fill="none" xmlns="http://www.w3.org/2000/svg">
<path d="M56 23.4999H53.2V16.3999C53.2 15.5999 52.6 14.9999 51.8 14.9999H12.3C11.5 14.9999 10.9 15.5999 10.9 16.3999V23.4999H8.10001V16.3999C8.10001 14.0999 9.99999 12.2 12.3 12.2H51.8C54.1 12.2 56 14.0999 56 16.3999V23.4999Z" fill="#1A5BB2"/>
<path d="M56 23.4999H53.2V16.3999C53.2 15.5999 52.6 14.9999 51.8 14.9999H12.3C11.5 14.9999 10.9 15.5999 10.9 16.3999V23.4999H8.10001V16.3999C8.10001 14.0999 9.99999 12.2 12.3 12.2H51.8C54.1 12.2 56 14.0999 56 16.3999V23.4999Z" fill="url(#paint0_linear)"/>
<path d="M48.9 51.8H15C12.7 51.8 10.8 49.9 10.8 47.6V23.6H13.6V47.6C13.6 48.4 14.2 49 15 49H48.9C49.7 49 50.3 48.4 50.3 47.6V23.6H53.1V47.6C53.2 49.9 51.3 51.8 48.9 51.8Z" fill="#1A5BB2"/>
<path d="M48.9 51.8H15C12.7 51.8 10.8 49.9 10.8 47.6V23.6H13.6V47.6C13.6 48.4 14.2 49 15 49H48.9C49.7 49 50.3 48.4 50.3 47.6V23.6H53.1V47.6C53.2 49.9 51.3 51.8 48.9 51.8Z" fill="url(#paint1_linear)"/>
<path d="M37.6 31.9999H26.3C25.5 31.9999 24.9 31.3999 24.9 30.5999C24.9 29.7999 25.5 29.2 26.3 29.2H37.6C38.4 29.2 39 29.7999 39 30.5999C39 31.3999 38.4 31.9999 37.6 31.9999Z" fill="#1A5BB2"/>
<path d="M37.6 31.9999H26.3C25.5 31.9999 24.9 31.3999 24.9 30.5999C24.9 29.7999 25.5 29.2 26.3 29.2H37.6C38.4 29.2 39 29.7999 39 30.5999C39 31.3999 38.4 31.9999 37.6 31.9999Z" fill="url(#paint2_linear)"/>
<path d="M8 20.7H56V23.4999H8V20.7Z" fill="#1A5BB2"/>
<path d="M8 20.7H56V23.4999H8V20.7Z" fill="url(#paint3_linear)"/>
<defs>
<linearGradient id="paint0_linear" x1="32.05" y1="12.2" x2="32.05" y2="23.4999" gradientUnits="userSpaceOnUse">
<stop stop-color="#2E61A6"/>
<stop offset="1" stop-color="#3A8DA7"/>
</linearGradient>
<linearGradient id="paint1_linear" x1="31.9519" y1="23.6" x2="31.9519" y2="51.8" gradientUnits="userSpaceOnUse">
<stop stop-color="#2E61A6"/>
<stop offset="1" stop-color="#3A8DA7"/>
</linearGradient>
<linearGradient id="paint2_linear" x1="31.95" y1="29.2" x2="31.95" y2="31.9999" gradientUnits="userSpaceOnUse">
<stop stop-color="#2E61A6"/>
<stop offset="1" stop-color="#3A8DA7"/>
</linearGradient>
<linearGradient id="paint3_linear" x1="32" y1="20.7" x2="32" y2="23.4999" gradientUnits="userSpaceOnUse">
<stop stop-color="#2E61A6"/>
<stop offset="1" stop-color="#3A8DA7"/>
</linearGradient>
</defs>
</svg>
